<svg width="219" height="219" viewBox="0 0 219 219" fill="none" xmlns="http://www.w3.org/2000/svg">
<path d="M152.6 82.6266C205.734 21.9021 228.506 67.4455 190.553 112.989C228.506 120.579 213.325 166.123 167.781 143.351L152.6 82.6266Z" fill="#A35A2C"/>
<path d="M107.057 181.304C153.17 181.304 190.553 154.117 190.553 120.579C190.553 87.0423 153.17 59.855 107.057 59.855C60.9431 59.855 23.5605 87.0423 23.5605 120.579C23.5605 154.117 60.9431 181.304 107.057 181.304Z" fill="#D89B5A"/>
<path d="M99.467 158.532C120.428 158.532 137.42 144.939 137.42 128.17C137.42 111.401 120.428 97.8078 99.467 97.8078C78.5062 97.8078 61.5142 111.401 61.5142 128.17C61.5142 144.939 78.5062 158.532 99.467 158.532Z" fill="#C8874F"/>
<path d="M69.1053 102.362C92.5813 102.362 111.612 83.331 111.612 59.855C111.612 36.3789 92.5813 17.3478 69.1053 17.3478C45.6292 17.3478 26.5981 36.3789 26.5981 59.855C26.5981 83.331 45.6292 102.362 69.1053 102.362Z" fill="#D89B5A"/>
<path d="M46.332 21.9021C46.332 -0.869589 61.5132 -0.869589 61.5132 21.9021C69.1037 -8.46015 91.8754 -8.46015 84.2848 29.4927C99.466 6.72097 114.647 14.3115 91.8754 37.0832L46.332 21.9021Z" fill="#C0392B"/>
<path d="M76.6955 58.8889C80.8877 58.8889 84.2861 55.4905 84.2861 51.2983C84.2861 47.1062 80.8877 43.7078 76.6955 43.7078C72.5034 43.7078 69.105 47.1062 69.105 51.2983C69.105 55.4905 72.5034 58.8889 76.6955 58.8889Z" fill="#2C2C2C"/>
<path d="M75.3145 53.3685C77.22 53.3685 78.7648 51.8237 78.7648 49.9182C78.7648 48.0127 77.22 46.468 75.3145 46.468C73.409 46.468 71.8643 48.0127 71.8643 49.9182C71.8643 51.8237 73.409 53.3685 75.3145 53.3685Z" fill="white"/>
<path d="M33.1484 66.0615L7.17372 59.063L32.8013 50.8844L33.1484 66.0615Z" fill="#F1C40F"/>
<path d="M84.2852 173.713V211.666" stroke="#F1C40F" stroke-width="9.10868" stroke-linecap="round"/>
<path d="M122.238 173.713V211.666" stroke="#F1C40F" stroke-width="9.10868" stroke-linecap="round"/>
<path d="M69.105 211.666H99.4672" stroke="#F1C40F" stroke-width="7.59056" stroke-linecap="round"/>
<path d="M107.057 211.666H137.419" stroke="#F1C40F" stroke-width="7.59056" stroke-linecap="round"/>
</svg>
